<?xml version="1.0" encoding="utf-8"?>
<!-- Generator: Adobe Illustrator 16.0.0, SVG Export Plug-In . SVG Version: 6.00 Build 0)  -->
<!DOCTYPE svg PUBLIC "-//W3C//DTD SVG 1.1//EN" "http://www.w3.org/Graphics/SVG/1.1/DTD/svg11.dtd">
<svg version="1.1" id="Layer_1" xmlns="http://www.w3.org/2000/svg" xmlns:xlink="http://www.w3.org/1999/xlink" x="0px" y="0px"
	 width="128px" height="128px" viewBox="0 0 128 128" enable-background="new 0 0 128 128" xml:space="preserve">
<g>
	<g>
		<g>
			
				<rect x="33.13" y="45.582" transform="matrix(0.7038 0.7104 -0.7104 0.7038 72.766 1.0446)" fill="#282D33" width="4" height="84.401"/>
		</g>
		<g>
			
				<rect x="8.874" y="114.822" transform="matrix(0.7102 0.704 -0.704 0.7102 86.9112 22.5078)" fill="#282D33" width="14.484" height="4.001"/>
		</g>
		<g>
			
				<rect x="23.191" y="100.634" transform="matrix(0.7103 0.7039 -0.7039 0.7103 81.065 8.3132)" fill="#282D33" width="14.485" height="4"/>
		</g>
		<g>
			
				<rect x="16.852" y="105.733" transform="matrix(0.7103 0.7039 -0.7039 0.7103 81.9947 16.2458)" fill="#282D33" width="8.819" height="4"/>
		</g>
		<g>
			<g>
				<g>
					<path fill="#282D33" d="M59.169,61.829c-3.832,0-7.435-1.479-10.146-4.165c-2.716-2.693-4.212-6.274-4.211-10.084
						c0-3.809,1.497-7.388,4.212-10.079c2.71-2.687,6.313-4.167,10.146-4.167s7.435,1.48,10.148,4.167
						c2.715,2.691,4.211,6.271,4.211,10.08s-1.494,7.39-4.211,10.082C66.605,60.35,63.001,61.829,59.169,61.829z M59.17,37.334
						c-2.77,0-5.373,1.068-7.33,3.008c-1.953,1.934-3.028,4.505-3.028,7.239c0,2.734,1.075,5.306,3.027,7.242
						c1.957,1.939,4.56,3.006,7.33,3.006c2.771,0,5.375-1.068,7.334-3.008c1.951-1.935,3.025-4.506,3.025-7.24
						c0-2.733-1.074-5.304-3.027-7.239C64.545,38.402,61.941,37.334,59.17,37.334z"/>
				</g>
				<g>
					<path fill="#282D33" d="M77.037,79.535c-3.832,0-7.436-1.48-10.146-4.167c-2.717-2.691-4.213-6.271-4.213-10.08
						c0-3.809,1.496-7.389,4.211-10.082c2.713-2.687,6.316-4.167,10.148-4.167s7.434,1.479,10.146,4.166
						c2.717,2.692,4.213,6.272,4.213,10.081c0,3.809-1.496,7.389-4.215,10.081C84.471,78.055,80.869,79.535,77.037,79.535z
						 M77.037,55.04c-2.77,0-5.375,1.068-7.332,3.008c-1.953,1.935-3.027,4.506-3.027,7.24c0,2.733,1.076,5.304,3.027,7.238
						c1.957,1.94,4.563,3.009,7.332,3.009s5.373-1.068,7.33-3.009c1.953-1.935,3.029-4.506,3.029-7.239s-1.076-5.305-3.029-7.239
						C82.41,56.108,79.807,55.04,77.037,55.04z"/>
				</g>
			</g>
			<g>
				<path fill="#282D33" d="M84.029,54.9c-3.832,0-7.436-1.479-10.146-4.166c-2.717-2.691-4.211-6.271-4.211-10.081
					c0-3.81,1.494-7.39,4.211-10.082c2.711-2.687,6.314-4.167,10.145-4.167c3.832,0,7.436,1.48,10.148,4.167
					c2.715,2.691,4.211,6.271,4.211,10.081c0,3.809-1.496,7.389-4.211,10.08C91.463,53.421,87.861,54.9,84.029,54.9z M84.027,30.406
					c-2.77,0-5.371,1.068-7.328,3.008c-1.953,1.935-3.027,4.506-3.027,7.24c0,2.734,1.074,5.305,3.025,7.239
					c1.959,1.939,4.563,3.007,7.332,3.007s5.373-1.068,7.33-3.007c1.951-1.934,3.027-4.505,3.027-7.239
					c0-2.734-1.076-5.305-3.027-7.24C89.4,31.475,86.797,30.406,84.027,30.406z"/>
			</g>
		</g>
	</g>
	<g>
		<path fill="#282D33" d="M64.012,127.446c-0.353,0-0.707-0.003-1.06-0.009l0.068-4c1.285,0.023,2.584,0.002,3.87-0.06l0.189,3.996
			C66.063,127.422,65.029,127.446,64.012,127.446z M58.834,127.24c-1.361-0.108-2.741-0.263-4.102-0.459l0.571-3.959
			c1.276,0.184,2.571,0.329,3.847,0.43L58.834,127.24z M71.193,127.047l-0.443-3.975c1.283-0.144,2.572-0.329,3.832-0.552
			l0.697,3.939C73.936,126.697,72.561,126.895,71.193,127.047z M50.669,126.061c-1.341-0.281-2.691-0.609-4.01-0.977l1.07-3.854
			c1.238,0.344,2.503,0.651,3.761,0.916L50.669,126.061z M79.316,125.612l-0.945-3.887c1.25-0.304,2.504-0.652,3.729-1.035
			l1.193,3.818C81.988,124.917,80.65,125.288,79.316,125.612z M42.72,123.854c-1.298-0.452-2.595-0.951-3.854-1.483l1.558-3.684
			c1.179,0.498,2.395,0.966,3.611,1.39L42.72,123.854z M87.189,123.152l-1.438-3.732c1.197-0.461,2.396-0.968,3.566-1.505
			l1.672,3.633C89.744,122.122,88.465,122.661,87.189,123.152z M35.117,120.641c-1.224-0.614-2.445-1.276-3.629-1.969l2.02-3.453
			c1.11,0.649,2.255,1.271,3.402,1.846L35.117,120.641z M94.682,119.698l-1.906-3.516c1.121-0.609,2.246-1.267,3.338-1.953
			l2.129,3.387C97.076,118.349,95.879,119.049,94.682,119.698z M101.662,115.308l-2.344-3.24c1.033-0.748,2.063-1.544,3.059-2.367
			l2.547,3.084C103.863,113.661,102.766,114.511,101.662,115.308z M108.02,110.055l-2.742-2.912
			c0.389-0.366,0.773-0.738,1.156-1.116c0.539-0.533,1.066-1.076,1.582-1.626l2.918,2.736c-0.549,0.585-1.111,1.163-1.686,1.733
			C108.838,109.273,108.432,109.667,108.02,110.055z M113.658,104.031l-3.09-2.541c0.822-0.999,1.615-2.031,2.359-3.068l3.25,2.334
			C115.383,101.862,114.535,102.964,113.658,104.031z M118.479,97.323l-3.395-2.117c0.678-1.088,1.33-2.215,1.938-3.349l3.525,1.889
			C119.9,94.957,119.203,96.16,118.479,97.323z M8.498,95.604c-0.688-1.187-1.346-2.41-1.955-3.638l3.584-1.777
			c0.57,1.149,1.186,2.296,1.831,3.407L8.498,95.604z M122.379,90.042l-3.643-1.652c0.531-1.172,1.029-2.374,1.48-3.575l3.744,1.41
			C123.479,87.506,122.945,88.791,122.379,90.042z M4.832,88.206c-0.525-1.26-1.017-2.56-1.461-3.863l3.786-1.291
			c0.416,1.221,0.876,2.438,1.367,3.617L4.832,88.206z M125.289,82.313l-3.828-1.16c0.371-1.228,0.709-2.485,1-3.737l3.896,0.906
			C126.045,79.659,125.686,81.002,125.289,82.313z M2.168,80.392c-0.356-1.324-0.673-2.677-0.942-4.021l3.922-0.785
			c0.252,1.259,0.549,2.526,0.882,3.767L2.168,80.392z M127.162,74.27l-3.947-0.65c0.209-1.272,0.379-2.563,0.504-3.836l3.98,0.391
			C127.566,71.532,127.385,72.91,127.162,74.27z M0.549,72.298c-0.18-1.354-0.318-2.737-0.41-4.109l3.991-0.268
			c0.086,1.286,0.215,2.581,0.383,3.85L0.549,72.298z M127.967,66.054l-3.998-0.129c0.021-0.641,0.031-1.282,0.031-1.924
			c0-0.648-0.01-1.296-0.031-1.944l3.998-0.134c0.023,0.692,0.033,1.385,0.033,2.078C128,64.686,127.99,65.37,127.967,66.054z
			 M0,64.058c0-1.423,0.044-2.784,0.13-4.125l3.992,0.256C4.041,61.445,4,62.721,4,63.98L0,64.058z M123.715,58.196
			c-0.125-1.278-0.295-2.569-0.504-3.835l3.947-0.65c0.223,1.352,0.402,2.729,0.537,4.093L123.715,58.196z M4.495,56.337
			l-3.967-0.517c0.177-1.357,0.401-2.729,0.667-4.076L5.12,52.52C4.871,53.781,4.661,55.065,4.495,56.337z M122.457,50.568
			c-0.293-1.255-0.629-2.511-1-3.733l3.826-1.164c0.396,1.307,0.758,2.649,1.07,3.99L122.457,50.568z M5.992,48.751L2.127,47.72
			c0.354-1.324,0.755-2.654,1.195-3.954l3.789,1.281C6.699,46.265,6.323,47.511,5.992,48.751z M120.213,43.172
			c-0.451-1.197-0.949-2.399-1.48-3.572l3.643-1.651c0.566,1.252,1.1,2.535,1.58,3.813L120.213,43.172z M8.47,41.426l-3.696-1.528
			c0.525-1.269,1.098-2.536,1.704-3.765l3.588,1.769C9.498,39.053,8.961,40.239,8.47,41.426z M117.02,36.137
			c-0.609-1.135-1.26-2.261-1.938-3.346l3.395-2.116c0.723,1.159,1.418,2.36,2.068,3.572L117.02,36.137z M11.89,34.49l-3.463-2.001
			c0.686-1.188,1.421-2.368,2.183-3.508l3.325,2.224C13.221,32.272,12.533,33.378,11.89,34.49z M112.932,29.58
			c-0.748-1.041-1.541-2.072-2.359-3.067l3.09-2.54c0.873,1.062,1.719,2.163,2.518,3.273L112.932,29.58z M16.19,28.06l-3.171-2.438
			c0.837-1.09,1.72-2.164,2.621-3.192l3.008,2.637C17.803,26.031,16.976,27.038,16.19,28.06z M108.02,23.604
			c-0.518-0.552-1.047-1.096-1.588-1.633c-0.379-0.375-0.76-0.744-1.146-1.106l2.738-2.916c0.414,0.388,0.82,0.782,1.225,1.183
			c0.576,0.571,1.141,1.152,1.691,1.74L108.02,23.604z M21.289,22.241l-2.828-2.828l0.28-0.279c0.882-0.874,1.797-1.729,2.722-2.546
			l2.647,2.998c-0.868,0.767-1.727,1.57-2.551,2.387L21.289,22.241z M102.379,18.302c-0.99-0.818-2.021-1.616-3.063-2.37
			l2.344-3.241c1.111,0.804,2.211,1.654,3.266,2.527L102.379,18.302z M27.092,17.118l-2.449-3.162
			c1.083-0.839,2.208-1.653,3.341-2.42l2.24,3.314C29.162,15.568,28.107,16.331,27.092,17.118z M96.107,13.767
			c-1.086-0.683-2.211-1.34-3.344-1.954l1.906-3.517c1.207,0.654,2.406,1.355,3.566,2.083L96.107,13.767z M33.497,12.789
			l-2.021-3.451c1.182-0.692,2.402-1.355,3.627-1.969l1.793,3.575C35.747,11.52,34.604,12.14,33.497,12.789z M89.303,10.081
			c-1.17-0.539-2.369-1.045-3.566-1.504l1.434-3.734c1.277,0.49,2.557,1.03,3.807,1.605L89.303,10.081z M40.406,9.323l-1.558-3.685
			c1.264-0.534,2.559-1.034,3.851-1.484l1.317,3.776C42.806,8.354,41.591,8.822,40.406,9.323z M82.08,7.305
			c-1.225-0.382-2.48-0.73-3.73-1.034l0.945-3.887c1.332,0.324,2.67,0.695,3.977,1.103L82.08,7.305z M47.708,6.774L46.636,2.92
			c1.32-0.367,2.669-0.696,4.009-0.978l0.823,3.914C50.211,6.121,48.946,6.43,47.708,6.774z M74.561,5.478
			c-1.266-0.223-2.557-0.408-3.834-0.55l0.443-3.976c1.361,0.152,2.734,0.349,4.084,0.586L74.561,5.478z M55.281,5.181l-0.572-3.959
			c1.357-0.196,2.737-0.351,4.1-0.46l0.319,3.987C57.849,4.852,56.555,4.997,55.281,5.181z M66.867,4.621
			c-0.959-0.045-1.961-0.087-2.87-0.067c-0.335,0-0.669,0.003-1.004,0.008l-0.063-3.999c0.365-0.006,0.736-0.012,1.096-0.009
			c0.999,0,2.016,0.024,3.028,0.072L66.867,4.621z"/>
	</g>
</g>
</svg>
